<svg width="16" height="16" viewBox="0 0 16 16" fill="none" xmlns="http://www.w3.org/2000/svg">
<path d="M8.00004 13.3333C8.73642 13.3333 9.44204 13.0404 9.96969 12.5128C10.4973 11.9851 10.7902 11.2795 10.7902 10.5432V6.54321C10.7902 5.43865 11.2292 4.37821 12.0001 3.59999C12.771 2.82177 13.821 2.33333 14.9334 2.33333H1.06671C2.17909 2.33333 3.2291 2.82177 4.00004 3.59999C4.77098 4.37821 5.21004 5.43865 5.21004 6.54321V10.5432C5.21004 11.2795 5.50295 11.9851 6.0306 12.5128C6.55825 13.0404 7.26387 13.3333 8.00004 13.3333Z" stroke="currentColor" strokeWidth="1.5" strokeLinecap="round" strokeLinejoin="round"/>
<path d="M8 14.6667C8.35362 14.6667 8.69277 14.5588 8.97885 14.3546C9.26493 14.1504 9.48697 13.8576 9.61667 13.5L6.38333 13.5C6.51303 13.8576 6.73507 14.1504 7.02115 14.3546C7.30723 14.5588 7.64638 14.6667 8 14.6667Z" stroke="currentColor" strokeWidth="1.5" strokeLinecap="round" strokeLinejoin="round"/>
</svg>
