<svg width="16" height="16" viewBox="0 0 16 16" fill="none" xmlns="http://www.w3.org/2000/svg">
<path d="M10.6667 14V12.6667C10.6667 11.9696 10.3947 11.3011 9.90105 10.8075C9.40745 10.3139 8.73899 10.0419 8.04194 10.0419H4.04194C3.34489 10.0419 2.67643 10.3139 2.18283 10.8075C1.68923 11.3011 1.41724 11.9696 1.41724 12.6667V14" stroke="currentColor" strokeWidth="1.5" strokeLinecap="round" strokeLinejoin="round"/>
<path d="M6.04194 7.33333C7.51069 7.33333 8.71724 6.12678 8.71724 4.65803C8.71724 3.18928 7.51069 1.98273 6.04194 1.98273C4.57319 1.98273 3.36664 3.18928 3.36664 4.65803C3.36664 6.12678 4.57319 7.33333 6.04194 7.33333Z" stroke="currentColor" strokeWidth="1.5" strokeLinecap="round" strokeLinejoin="round"/>
<path d="M14.0001 14V12.6667C14.0001 11.9696 13.7281 11.3011 13.2345 10.8075C12.7409 10.3139 12.0724 10.0419 11.3754 10.0419H10.042" stroke="currentColor" strokeWidth="1.5" strokeLinecap="round" strokeLinejoin="round"/>
<path d="M11.3754 7.33333C12.0724 7.33333 12.7409 7.06134 13.2345 6.56774C13.7281 6.07414 14.0001 5.40568 14.0001 4.70863C14.0001 4.01158 13.7281 3.34312 13.2345 2.84952C12.7409 2.35592 12.0724 2.08394 11.3754 2.08394C11.0269 2.08394 10.6935 2.17081 10.3947 2.33333" stroke="currentColor" strokeWidth="1.5" strokeLinecap="round" strokeLinejoin="round"/>
</svg>
